<?xml version="1.0" encoding="UTF-8" standalone="no"?>
<svg
   class="svglite"
   width="553.21509pt"
   height="336.15906pt"
   viewBox="0 0 553.21509 336.15906"
   version="1.1"
   id="svg233"
   sodipodi:docname="figurefour.svg"
   inkscape:version="1.1.1 (1:1.1+202109281949+c3084ef5ed)"
   xmlns:inkscape="http://www.inkscape.org/namespaces/inkscape"
   xmlns:sodipodi="http://sodipodi.sourceforge.net/DTD/sodipodi-0.dtd"
   xmlns="http://www.w3.org/2000/svg"
   xmlns:svg="http://www.w3.org/2000/svg">
  <sodipodi:namedview
     id="namedview235"
     pagecolor="#ffffff"
     bordercolor="#666666"
     borderopacity="1.0"
     inkscape:pageshadow="2"
     inkscape:pageopacity="0.0"
     inkscape:pagecheckerboard="0"
     inkscape:document-units="pt"
     showgrid="false"
     fit-margin-left="1"
     fit-margin-top="1"
     fit-margin-right="1"
     fit-margin-bottom="1"
     inkscape:zoom="1.0234375"
     inkscape:cx="242.32061"
     inkscape:cy="154.87023"
     inkscape:window-width="1680"
     inkscape:window-height="955"
     inkscape:window-x="0"
     inkscape:window-y="0"
     inkscape:window-maximized="1"
     inkscape:current-layer="svg233" />
  <defs
     id="defs4">
    <style
       type="text/css"
       id="style2"><![CDATA[
    .svglite line, .svglite polyline, .svglite polygon, .svglite path, .svglite rect, .svglite circle {
      fill: none;
      stroke: #000000;
      stroke-linecap: round;
      stroke-linejoin: round;
      stroke-miterlimit: 10.00;
    }
  ]]></style>
  </defs>
  <defs
     id="defs11" />
  <defs
     id="defs18" />
  <defs
     id="defs27" />
  <g
     id="g1241"
     inkscape:label="Axes"
     transform="translate(-12.592265,-35.778751)">
    <polyline
       points="208.46,205.60 266.04,47.41 "
       style="stroke:#333333;stroke-width:1.07;stroke-linecap:butt;stroke-opacity:0.2"
       id="polyline29"
       transform="matrix(0.85781882,0,0,0.85781882,29.567609,29.258468)" />
    <polyline
       points="208.46,205.60 354.25,121.43 "
       style="stroke:#333333;stroke-width:1.07;stroke-linecap:butt;stroke-opacity:0.2"
       id="polyline31"
       transform="matrix(0.94096821,0,0,0.94096821,12.289976,12.164287)" />
    <polyline
       points="208.46,205.60 374.25,234.83 "
       style="stroke:#333333;stroke-width:1.07;stroke-linecap:butt;stroke-opacity:0.2"
       id="polyline33"
       transform="matrix(0.84231465,0,0,0.84231465,32.85644,32.337028)" />
    <polyline
       points="208.46,205.60 316.67,334.56 "
       style="stroke:#333333;stroke-width:1.07;stroke-linecap:butt;stroke-opacity:0.2"
       id="polyline35"
       transform="matrix(0.88070878,0,0,0.88070878,24.818559,24.485253)" />
    <polyline
       points="208.46,205.60 208.46,373.94 "
       style="stroke:#333333;stroke-width:1.07;stroke-linecap:butt;stroke-opacity:0.2"
       id="polyline37"
       transform="matrix(1,0,0,0.89886715,0,20.792915)" />
    <polyline
       points="208.46,205.60 100.26,334.56 "
       style="stroke:#333333;stroke-width:1.07;stroke-linecap:butt;stroke-opacity:0.2"
       id="polyline39"
       transform="matrix(0.90120815,0,0,0.90120815,20.634639,20.277633)" />
    <polyline
       points="208.46,205.60 42.68,234.83 "
       style="stroke:#333333;stroke-width:1.07;stroke-linecap:butt;stroke-opacity:0.2"
       id="polyline41"
       transform="matrix(0.81522569,0,0,0.81522569,38.535219,37.892246)" />
    <polyline
       points="208.46,205.60 62.68,121.43 "
       style="stroke:#333333;stroke-width:1.07;stroke-linecap:butt;stroke-opacity:0.2"
       id="polyline43"
       transform="matrix(0.86230442,0,0,0.86230442,28.740855,28.374008)" />
    <polyline
       points="208.46,205.60 150.89,47.41 "
       style="stroke:#333333;stroke-width:1.07;stroke-linecap:butt;stroke-opacity:0.2"
       id="polyline45"
       transform="matrix(0.89792352,0,0,0.89792352,21.330181,21.0056)" />
  </g>
  <g
     id="g1297"
     inkscape:label="PlotPoints"
     transform="translate(-12.592265,-35.778751)">
    <circle
       cx="250.37"
       cy="90.480003"
       r="2.49"
       style="fill:#c7a76c;stroke:#c7a76c;stroke-width:0.71"
       id="circle47" />
    <circle
       cx="299.17001"
       cy="153.23"
       r="2.49"
       style="fill:#c7a76c;stroke:#c7a76c;stroke-width:0.71"
       id="circle49" />
    <circle
       cx="286.29999"
       cy="219.33"
       r="2.49"
       style="fill:#c7a76c;stroke:#c7a76c;stroke-width:0.71"
       id="circle51" />
    <circle
       cx="285.72"
       cy="297.67001"
       r="2.49"
       style="fill:#c7a76c;stroke:#c7a76c;stroke-width:0.71"
       id="circle53" />
    <circle
       cx="208.46001"
       cy="320.79001"
       r="2.49"
       style="fill:#c7a76c;stroke:#c7a76c;stroke-width:0.71"
       id="circle55" />
    <circle
       cx="130.82001"
       cy="298.14001"
       r="2.49"
       style="fill:#c7a76c;stroke:#c7a76c;stroke-width:0.71"
       id="circle57" />
    <circle
       cx="82.449997"
       cy="227.82001"
       r="2.49"
       style="fill:#c7a76c;stroke:#c7a76c;stroke-width:0.71"
       id="circle59" />
    <circle
       cx="116.52"
       cy="152.52"
       r="2.49"
       style="fill:#c7a76c;stroke:#c7a76c;stroke-width:0.71"
       id="circle61" />
    <circle
       cx="174.78999"
       cy="113.08"
       r="2.49"
       style="fill:#c7a76c;stroke:#c7a76c;stroke-width:0.71"
       id="circle63" />
    <circle
       cx="245.39999"
       cy="104.13"
       r="2.49"
       style="fill:#a4b266;stroke:#a4b266;stroke-width:0.71"
       id="circle65" />
    <circle
       cx="299.31"
       cy="153.14999"
       r="2.49"
       style="fill:#a4b266;stroke:#a4b266;stroke-width:0.71"
       id="circle67" />
    <circle
       cx="287.54999"
       cy="219.55"
       r="2.49"
       style="fill:#a4b266;stroke:#a4b266;stroke-width:0.71"
       id="circle69" />
    <circle
       cx="286.70001"
       cy="298.84"
       r="2.49"
       style="fill:#a4b266;stroke:#a4b266;stroke-width:0.71"
       id="circle71" />
    <circle
       cx="208.46001"
       cy="264.07999"
       r="2.49"
       style="fill:#a4b266;stroke:#a4b266;stroke-width:0.71"
       id="circle73" />
    <circle
       cx="140.95"
       cy="286.07001"
       r="2.49"
       style="fill:#a4b266;stroke:#a4b266;stroke-width:0.71"
       id="circle75" />
    <circle
       cx="124.02"
       cy="220.49001"
       r="2.49"
       style="fill:#a4b266;stroke:#a4b266;stroke-width:0.71"
       id="circle77" />
    <circle
       cx="147.02"
       cy="170.13"
       r="2.49"
       style="fill:#a4b266;stroke:#a4b266;stroke-width:0.71"
       id="circle79" />
    <circle
       cx="185.03"
       cy="141.2"
       r="2.49"
       style="fill:#a4b266;stroke:#a4b266;stroke-width:0.71"
       id="circle81" />
    <circle
       cx="238.09"
       cy="124.21"
       r="2.49"
       style="fill:#76bb80;stroke:#76bb80;stroke-width:0.71"
       id="circle83" />
    <circle
       cx="282.23001"
       cy="163.00999"
       r="2.49"
       style="fill:#76bb80;stroke:#76bb80;stroke-width:0.71"
       id="circle85" />
    <circle
       cx="280.92001"
       cy="218.38"
       r="2.49"
       style="fill:#76bb80;stroke:#76bb80;stroke-width:0.71"
       id="circle87" />
    <circle
       cx="285.64999"
       cy="297.59"
       r="2.49"
       style="fill:#76bb80;stroke:#76bb80;stroke-width:0.71"
       id="circle89" />
    <circle
       cx="208.46001"
       cy="289.20001"
       r="2.49"
       style="fill:#76bb80;stroke:#76bb80;stroke-width:0.71"
       id="circle91" />
    <circle
       cx="127.5"
       cy="302.10001"
       r="2.49"
       style="fill:#76bb80;stroke:#76bb80;stroke-width:0.71"
       id="circle93" />
    <circle
       cx="103.37"
       cy="224.13"
       r="2.49"
       style="fill:#76bb80;stroke:#76bb80;stroke-width:0.71"
       id="circle95" />
    <circle
       cx="115.12"
       cy="151.71001"
       r="2.49"
       style="fill:#76bb80;stroke:#76bb80;stroke-width:0.71"
       id="circle97" />
    <circle
       cx="167.86"
       cy="94.040001"
       r="2.49"
       style="fill:#76bb80;stroke:#76bb80;stroke-width:0.71"
       id="circle99" />
    <circle
       cx="241.77"
       cy="114.09"
       r="2.49"
       style="fill:#44bea5;stroke:#44bea5;stroke-width:0.71"
       id="circle101" />
    <circle
       cx="338.04999"
       cy="130.78"
       r="2.49"
       style="fill:#44bea5;stroke:#44bea5;stroke-width:0.71"
       id="circle103" />
    <circle
       cx="208.46001"
       cy="205.60001"
       r="2.49"
       style="fill:#44bea5;stroke:#44bea5;stroke-width:0.71"
       id="circle105" />
    <circle
       cx="264.64999"
       cy="272.56"
       r="2.49"
       style="fill:#44bea5;stroke:#44bea5;stroke-width:0.71"
       id="circle107" />
    <circle
       cx="208.46001"
       cy="284.07999"
       r="2.49"
       style="fill:#44bea5;stroke:#44bea5;stroke-width:0.71"
       id="circle109" />
    <circle
       cx="145.16"
       cy="281.04999"
       r="2.49"
       style="fill:#44bea5;stroke:#44bea5;stroke-width:0.71"
       id="circle111" />
    <circle
       cx="112.55"
       cy="222.50999"
       r="2.49"
       style="fill:#44bea5;stroke:#44bea5;stroke-width:0.71"
       id="circle113" />
    <circle
       cx="166.99001"
       cy="181.64999"
       r="2.49"
       style="fill:#44bea5;stroke:#44bea5;stroke-width:0.71"
       id="circle115" />
    <circle
       cx="208.46001"
       cy="205.60001"
       r="2.49"
       style="fill:#44bea5;stroke:#44bea5;stroke-width:0.71"
       id="circle117" />
    <circle
       cx="239.63"
       cy="119.96"
       r="2.49"
       style="fill:#43bbc7;stroke:#43bbc7;stroke-width:0.71"
       id="circle119" />
    <circle
       cx="278.37"
       cy="165.24001"
       r="2.49"
       style="fill:#43bbc7;stroke:#43bbc7;stroke-width:0.71"
       id="circle121" />
    <circle
       cx="208.46001"
       cy="205.60001"
       r="2.49"
       style="fill:#43bbc7;stroke:#43bbc7;stroke-width:0.71"
       id="circle123" />
    <circle
       cx="280.25"
       cy="291.14999"
       r="2.49"
       style="fill:#43bbc7;stroke:#43bbc7;stroke-width:0.71"
       id="circle125" />
    <circle
       cx="208.46001"
       cy="293.87"
       r="2.49"
       style="fill:#43bbc7;stroke:#43bbc7;stroke-width:0.71"
       id="circle127" />
    <circle
       cx="141.25999"
       cy="285.69"
       r="2.49"
       style="fill:#43bbc7;stroke:#43bbc7;stroke-width:0.71"
       id="circle129" />
    <circle
       cx="128"
       cy="219.78999"
       r="2.49"
       style="fill:#43bbc7;stroke:#43bbc7;stroke-width:0.71"
       id="circle131" />
    <circle
       cx="130.03999"
       cy="160.32001"
       r="2.49"
       style="fill:#43bbc7;stroke:#43bbc7;stroke-width:0.71"
       id="circle133" />
    <circle
       cx="175.13"
       cy="114.01"
       r="2.49"
       style="fill:#43bbc7;stroke:#43bbc7;stroke-width:0.71"
       id="circle135" />
    <circle
       cx="248.53999"
       cy="95.480003"
       r="2.49"
       style="fill:#7db0dd;stroke:#7db0dd;stroke-width:0.71"
       id="circle137" />
    <circle
       cx="304.35999"
       cy="150.24001"
       r="2.49"
       style="fill:#7db0dd;stroke:#7db0dd;stroke-width:0.71"
       id="circle139" />
    <circle
       cx="321.69"
       cy="225.57001"
       r="2.49"
       style="fill:#7db0dd;stroke:#7db0dd;stroke-width:0.71"
       id="circle141" />
    <circle
       cx="297.79001"
       cy="312.06"
       r="2.49"
       style="fill:#7db0dd;stroke:#7db0dd;stroke-width:0.71"
       id="circle143" />
    <circle
       cx="208.46001"
       cy="316.12"
       r="2.49"
       style="fill:#7db0dd;stroke:#7db0dd;stroke-width:0.71"
       id="circle145" />
    <circle
       cx="122.99"
       cy="307.47"
       r="2.49"
       style="fill:#7db0dd;stroke:#7db0dd;stroke-width:0.71"
       id="circle147" />
    <circle
       cx="83.230003"
       cy="227.67999"
       r="2.49"
       style="fill:#7db0dd;stroke:#7db0dd;stroke-width:0.71"
       id="circle149" />
    <circle
       cx="107.17"
       cy="147.12"
       r="2.49"
       style="fill:#7db0dd;stroke:#7db0dd;stroke-width:0.71"
       id="circle151" />
    <circle
       cx="168.13"
       cy="94.790001"
       r="2.49"
       style="fill:#7db0dd;stroke:#7db0dd;stroke-width:0.71"
       id="circle153" />
  </g>
  <g
     id="g1305"
     inkscape:label="PlotLines"
     transform="translate(-12.592265,-35.778751)">
    <polyline
       points="250.37,90.48 254.92,93.44 259.30,96.58 263.50,99.89 267.50,103.35 271.31,106.96 274.91,110.70 278.31,114.57 281.50,118.56 284.48,122.65 287.24,126.83 289.78,131.09 292.10,135.42 294.20,139.81 296.08,144.25 297.74,148.73 299.17,153.23 300.09,159.07 300.65,164.86 300.85,170.56 300.72,176.17 300.25,181.67 299.46,187.02 298.37,192.23 296.99,197.26 295.34,202.10 293.42,206.74 291.27,211.17 288.89,215.37 286.30,219.33 288.25,223.53 289.98,227.95 291.46,232.57 292.68,237.37 293.63,242.34 294.30,247.46 294.66,252.73 294.72,258.11 294.46,263.60 293.87,269.18 292.94,274.82 291.66,280.51 290.04,286.23 288.06,291.96 285.72,297.67 281.44,300.70 277.04,303.54 272.54,306.17 267.93,308.60 263.24,310.82 258.47,312.83 253.62,314.62 248.72,316.19 243.76,317.55 238.76,318.68 233.73,319.59 228.68,320.27 223.62,320.74 218.56,320.98 213.50,321.00 208.46,320.79 203.42,321.03 198.36,321.05 193.29,320.85 188.22,320.42 183.15,319.77 178.11,318.90 173.09,317.80 168.11,316.48 163.18,314.94 158.30,313.18 153.49,311.20 148.77,309.00 144.12,306.60 139.58,303.98 135.14,301.16 130.82,298.14 126.80,295.18 122.89,292.06 119.11,288.76 115.45,285.29 111.93,281.67 108.54,277.89 105.31,273.96 102.23,269.88 99.31,265.67 96.56,261.32 93.98,256.86 91.58,252.27 89.37,247.57 87.34,242.77 85.51,237.87 83.88,232.89 82.45,227.82 82.95,222.13 83.70,216.52 84.71,211.00 85.95,205.60 87.43,200.32 89.13,195.16 91.05,190.14 93.18,185.27 95.50,180.56 98.02,176.01 100.71,171.63 103.58,167.43 106.60,163.41 109.77,159.58 113.08,155.95 116.52,152.52 119.74,148.30 123.16,144.27 126.75,140.44 130.51,136.81 134.43,133.39 138.50,130.19 142.70,127.22 147.02,124.48 151.45,121.97 155.97,119.70 160.58,117.68 165.27,115.90 170.00,114.36 174.79,113.08 "
       style="display:inline;stroke:#c7a76c;stroke-width:3.2;stroke-linecap:butt;stroke-opacity:0.9"
       id="polyline155"
       inkscape:label="MiscInfLine" />
    <polyline
       points="245.40,104.13 250.32,106.30 255.12,108.71 259.79,111.35 264.31,114.22 268.67,117.29 272.87,120.58 276.88,124.07 280.71,127.74 284.34,131.59 287.77,135.61 290.99,139.79 293.99,144.11 296.77,148.57 299.31,153.15 300.31,158.96 300.95,164.72 301.24,170.42 301.19,176.02 300.81,181.52 300.12,186.89 299.12,192.12 297.83,197.18 296.26,202.06 294.44,206.76 292.36,211.24 290.06,215.51 287.55,219.55 289.39,223.54 291.03,227.73 292.46,232.08 293.66,236.61 294.61,241.29 295.32,246.10 295.77,251.05 295.94,256.11 295.84,261.27 295.45,266.51 294.76,271.82 293.77,277.19 292.48,282.59 290.87,288.01 288.95,293.43 286.70,298.84 280.54,299.03 274.49,298.88 268.58,298.39 262.83,297.57 257.25,296.45 251.85,295.03 246.66,293.33 241.68,291.35 236.94,289.12 232.43,286.65 228.17,283.96 224.18,281.06 220.46,277.97 217.02,274.71 213.87,271.30 211.02,267.75 208.46,264.08 205.38,267.33 201.98,270.41 198.26,273.29 194.24,275.96 189.93,278.39 185.35,280.55 180.50,282.43 175.41,284.01 170.10,285.26 164.59,286.17 158.90,286.72 153.04,286.89 147.05,286.68 140.95,286.07 137.74,281.24 134.85,276.31 132.28,271.29 130.04,266.20 128.12,261.06 126.53,255.89 125.25,250.71 124.29,245.54 123.64,240.40 123.30,235.31 123.25,230.28 123.49,225.34 124.02,220.49 124.58,214.96 125.50,209.55 126.76,204.31 128.35,199.23 130.24,194.36 132.43,189.69 134.89,185.26 137.60,181.08 140.54,177.15 143.69,173.50 147.02,170.13 150.17,165.62 153.66,161.39 157.44,157.47 161.51,153.86 165.82,150.58 170.36,147.67 175.10,145.13 179.99,142.97 185.03,141.20 "
       style="display:inline;stroke:#a4b266;stroke-width:3.2;stroke-linecap:butt;stroke-opacity:0.9"
       id="polyline157"
       inkscape:label="OrigAnalysisLine" />
    <polyline
       points="238.09,124.21 243.14,126.37 248.04,128.84 252.76,131.62 257.29,134.69 261.60,138.03 265.70,141.63 269.54,145.48 273.13,149.56 276.45,153.86 279.49,158.35 282.23,163.01 283.84,168.25 285.08,173.51 285.97,178.78 286.49,184.03 286.67,189.24 286.51,194.38 286.01,199.44 285.19,204.38 284.06,209.20 282.63,213.87 280.92,218.38 283.13,222.15 285.14,226.15 286.95,230.35 288.52,234.74 289.86,239.32 290.95,244.06 291.77,248.97 292.32,254.01 292.58,259.19 292.54,264.47 292.20,269.85 291.54,275.31 290.57,280.83 289.26,286.40 287.63,291.99 285.65,297.59 279.81,299.15 274.00,300.36 268.23,301.25 262.52,301.80 256.90,302.04 251.37,301.97 245.96,301.60 240.67,300.93 235.53,299.99 230.55,298.78 225.74,297.32 221.11,295.61 216.69,293.68 212.47,291.54 208.46,289.20 204.70,291.77 200.72,294.16 196.52,296.36 192.11,298.36 187.51,300.14 182.72,301.70 177.75,303.01 172.63,304.06 167.35,304.85 161.94,305.37 156.41,305.59 150.78,305.52 145.05,305.14 139.25,304.45 133.39,303.43 127.50,302.10 124.18,297.58 121.10,292.97 118.25,288.26 115.66,283.48 113.30,278.62 111.19,273.71 109.33,268.76 107.71,263.77 106.34,258.77 105.20,253.75 104.31,248.74 103.66,243.75 103.24,238.78 103.06,233.85 103.10,228.96 103.37,224.13 102.50,218.88 101.89,213.59 101.55,208.27 101.47,202.93 101.66,197.60 102.12,192.27 102.84,186.98 103.83,181.72 105.07,176.51 106.58,171.37 108.34,166.31 110.35,161.33 112.62,156.46 115.12,151.71 117.11,147.03 119.34,142.42 121.80,137.89 124.49,133.46 127.41,129.13 130.55,124.92 133.91,120.83 137.48,116.89 141.25,113.09 145.23,109.45 149.40,105.99 153.75,102.71 158.29,99.61 162.99,96.72 167.86,94.04 "
       style="display:inline;stroke:#76bb80;stroke-width:3.2;stroke-linecap:butt;stroke-opacity:0.9"
       id="polyline159"
       inkscape:label="EducationalLine" />
    <polyline
       points="241.77,114.09 246.15,112.83 250.66,111.77 255.29,110.91 260.05,110.28 264.91,109.87 269.88,109.69 274.92,109.75 280.05,110.06 285.24,110.61 290.48,111.42 295.77,112.50 301.08,113.83 306.42,115.43 311.75,117.30 317.08,119.45 322.39,121.87 327.66,124.56 332.89,127.54 338.05,130.78 335.47,136.04 332.72,141.14 329.81,146.08 326.74,150.86 323.51,155.46 320.15,159.89 316.64,164.15 313.00,168.22 309.24,172.10 305.35,175.80 301.35,179.31 297.25,182.61 293.05,185.72 288.75,188.63 284.37,191.33 279.91,193.83 275.37,196.12 270.78,198.20 266.12,200.07 261.42,201.72 256.67,203.16 251.89,204.38 247.08,205.38 242.25,206.17 237.40,206.74 232.55,207.10 227.70,207.23 222.86,207.15 218.04,206.85 213.24,206.33 208.46,205.60 213.21,206.63 217.87,208.02 222.42,209.78 226.84,211.89 231.11,214.35 235.22,217.14 239.13,220.26 242.83,223.71 246.31,227.45 249.54,231.49 252.51,235.81 255.20,240.40 257.60,245.23 259.68,250.30 261.44,255.58 262.86,261.07 263.94,266.73 264.65,272.56 259.81,275.33 254.84,277.76 249.78,279.85 244.64,281.59 239.44,282.98 234.22,284.02 228.99,284.71 223.78,285.05 218.61,285.06 213.49,284.73 208.46,284.08 203.80,285.61 198.97,286.86 193.97,287.81 188.83,288.46 183.57,288.77 178.20,288.75 172.76,288.38 167.26,287.65 161.72,286.56 156.18,285.10 150.65,283.26 145.16,281.05 141.26,277.48 137.56,273.71 134.07,269.75 130.80,265.61 127.76,261.31 124.95,256.85 122.40,252.26 120.09,247.54 118.05,242.70 116.26,237.76 114.75,232.75 113.51,227.66 112.55,222.51 115.33,217.27 118.39,212.35 121.70,207.77 125.24,203.53 128.97,199.64 132.87,196.13 136.92,192.99 141.09,190.22 145.34,187.84 149.66,185.84 154.01,184.23 158.36,183.00 162.70,182.14 166.99,181.65 172.73,181.50 178.27,182.01 183.55,183.17 188.50,184.93 193.07,187.26 197.20,190.10 200.85,193.42 203.97,197.14 206.52,201.23 208.46,205.60 "
       style="display:inline;stroke:#44bea5;stroke-width:3.2;stroke-linecap:butt;stroke-opacity:0.903486"
       id="polyline161"
       inkscape:label="StorageLine" />
    <polyline
       points="239.63,119.96 244.22,122.72 248.59,125.71 252.73,128.93 256.64,132.36 260.30,135.98 263.70,139.78 266.84,143.73 269.71,147.82 272.30,152.04 274.61,156.36 276.63,160.77 278.37,165.24 275.77,170.35 272.86,175.17 269.69,179.69 266.25,183.89 262.59,187.77 258.70,191.31 254.63,194.49 250.39,197.32 246.00,199.77 241.49,201.86 236.88,203.56 232.20,204.87 227.46,205.80 222.69,206.33 217.92,206.48 213.17,206.23 208.46,205.60 213.22,206.59 217.91,207.87 222.52,209.43 227.04,211.27 231.46,213.38 235.76,215.77 239.94,218.43 243.98,221.35 247.86,224.52 251.58,227.94 255.12,231.60 258.48,235.50 261.64,239.62 264.59,243.96 267.32,248.50 269.83,253.25 272.10,258.18 274.12,263.29 275.89,268.57 277.39,274.01 278.63,279.59 279.58,285.31 280.25,291.15 274.89,293.29 269.49,295.11 264.08,296.62 258.68,297.81 253.29,298.69 247.95,299.26 242.66,299.54 237.44,299.53 232.31,299.24 227.28,298.67 222.37,297.84 217.59,296.76 212.95,295.43 208.46,293.87 203.66,294.99 198.73,295.85 193.70,296.43 188.58,296.73 183.39,296.74 178.13,296.45 172.84,295.86 167.53,294.96 162.21,293.74 156.90,292.21 151.63,290.35 146.41,288.18 141.26,285.69 138.26,280.69 135.60,275.59 133.28,270.43 131.29,265.23 129.65,260.00 128.34,254.77 127.36,249.57 126.71,244.40 126.37,239.28 126.34,234.25 126.61,229.31 127.16,224.49 128.00,219.79 126.58,215.17 125.42,210.44 124.54,205.60 123.95,200.68 123.65,195.69 123.64,190.64 123.93,185.57 124.54,180.47 125.45,175.39 126.67,170.32 128.20,165.29 130.04,160.32 132.14,155.89 134.48,151.55 137.08,147.32 139.92,143.21 142.99,139.24 146.30,135.43 149.82,131.78 153.56,128.30 157.51,125.02 161.64,121.93 165.97,119.06 170.47,116.42 175.13,114.01 "
       style="display:inline;stroke:#42bbc7;stroke-width:3.2;stroke-linecap:butt;stroke-opacity:0.406742"
       id="polyline163"
       inkscape:label="MiscArticlesLine" />
    <polyline
       points="248.54,95.48 253.46,97.87 258.24,100.46 262.87,103.27 267.36,106.29 271.68,109.49 275.83,112.89 279.80,116.46 283.58,120.19 287.18,124.09 290.57,128.14 293.76,132.32 296.74,136.63 299.50,141.06 302.04,145.60 304.36,150.24 307.08,154.63 309.61,159.15 311.92,163.80 314.02,168.57 315.90,173.44 317.55,178.40 318.98,183.45 320.17,188.58 321.12,193.76 321.83,199.00 322.30,204.28 322.52,209.58 322.49,214.91 322.22,220.24 321.69,225.57 322.13,230.22 322.38,234.95 322.44,239.72 322.29,244.55 321.94,249.41 321.38,254.31 320.61,259.22 319.62,264.15 318.42,269.09 317.01,274.01 315.37,278.93 313.52,283.81 311.45,288.66 309.15,293.47 306.64,298.22 303.91,302.91 300.96,307.53 297.79,312.06 292.63,314.19 287.44,316.09 282.22,317.75 277.00,319.17 271.78,320.36 266.58,321.31 261.39,322.04 256.24,322.54 251.13,322.82 246.07,322.88 241.07,322.73 236.14,322.37 231.29,321.80 226.52,321.04 221.85,320.08 217.27,318.94 212.81,317.61 208.46,316.12 203.87,317.34 199.18,318.38 194.40,319.21 189.53,319.84 184.58,320.26 179.57,320.47 174.51,320.45 169.40,320.21 164.25,319.74 159.07,319.04 153.88,318.11 148.68,316.94 143.49,315.53 138.31,313.87 133.16,311.98 128.05,309.85 122.99,307.47 119.11,303.62 115.40,299.63 111.87,295.49 108.52,291.23 105.36,286.84 102.39,282.34 99.61,277.73 97.03,273.02 94.66,268.23 92.49,263.35 90.53,258.40 88.78,253.39 87.24,248.32 85.91,243.21 84.80,238.06 83.91,232.88 83.23,227.68 83.02,222.12 83.05,216.57 83.33,211.07 83.85,205.60 84.60,200.19 85.59,194.85 86.81,189.59 88.25,184.41 89.91,179.32 91.79,174.34 93.87,169.47 96.16,164.72 98.63,160.11 101.30,155.63 104.15,151.30 107.17,147.12 109.76,142.72 112.55,138.44 115.52,134.29 118.68,130.26 122.01,126.38 125.50,122.64 129.16,119.05 132.97,115.63 136.93,112.38 141.03,109.30 145.26,106.40 149.62,103.68 154.10,101.16 158.68,98.83 163.36,96.71 168.13,94.79 "
       style="display:inline;stroke:#7db0dd;stroke-width:3.2;stroke-linecap:butt;stroke-opacity:0.899572"
       id="polyline165"
       inkscape:label="SoftwareLine" />
  </g>
  <text
     x="266.04001"
     y="45.310001"
     text-anchor="middle"
     style="font-style:normal;font-variant:normal;font-weight:normal;font-stretch:normal;font-size:12px;font-family:'Roboto Condensed';-inkscape-font-specification:'Roboto Condensed, Normal';font-variant-ligatures:normal;font-variant-caps:normal;font-variant-numeric:normal;font-variant-east-asian:normal;fill:#000000;fill-opacity:0.80000001"
     textLength="61.279999"
     lengthAdjust="spacingAndGlyphs"
     id="text167"
     transform="translate(-12.592265,-35.778751)">README</text>
  <text
     x="266.04001"
     y="58.27"
     text-anchor="middle"
     style="font-style:normal;font-variant:normal;font-weight:normal;font-stretch:normal;font-size:12px;font-family:'Roboto Condensed';-inkscape-font-specification:'Roboto Condensed, Normal';font-variant-ligatures:normal;font-variant-caps:normal;font-variant-numeric:normal;font-variant-east-asian:normal;fill:#000000;fill-opacity:0.80000001"
     textLength="47.470001"
     lengthAdjust="spacingAndGlyphs"
     id="text169"
     transform="translate(-12.592265,-35.778751)">Length</text>
  <text
     x="354.25"
     y="119.33"
     text-anchor="middle"
     style="font-style:normal;font-variant:normal;font-weight:normal;font-stretch:normal;font-size:12px;font-family:'Roboto Condensed';-inkscape-font-specification:'Roboto Condensed, Normal';font-variant-ligatures:normal;font-variant-caps:normal;font-variant-numeric:normal;font-variant-east-asian:normal;fill:#000000;fill-opacity:0.80000001"
     textLength="61.279999"
     lengthAdjust="spacingAndGlyphs"
     id="text171"
     transform="translate(-2.0922648,-47.778751)">README</text>
  <text
     x="354.25"
     y="132.28999"
     text-anchor="middle"
     style="font-style:normal;font-variant:normal;font-weight:normal;font-stretch:normal;font-size:12px;font-family:'Roboto Condensed';-inkscape-font-specification:'Roboto Condensed, Normal';font-variant-ligatures:normal;font-variant-caps:normal;font-variant-numeric:normal;font-variant-east-asian:normal;fill:#000000;fill-opacity:0.80000001"
     textLength="63.59"
     lengthAdjust="spacingAndGlyphs"
     id="text173"
     transform="translate(-2.0922648,-47.778751)">Headings</text>
  <text
     x="374.25"
     y="239.21001"
     text-anchor="middle"
     style="font-style:normal;font-variant:normal;font-weight:normal;font-stretch:normal;font-size:12px;font-family:'Roboto Condensed';-inkscape-font-specification:'Roboto Condensed, Normal';font-variant-ligatures:normal;font-variant-caps:normal;font-variant-numeric:normal;font-variant-east-asian:normal;fill:#000000;fill-opacity:0.80000001"
     textLength="49.110001"
     lengthAdjust="spacingAndGlyphs"
     id="text175"
     transform="translate(-12.592265,-35.778751)">Badges</text>
  <text
     x="316.67001"
     y="332.45001"
     text-anchor="middle"
     style="font-style:normal;font-variant:normal;font-weight:normal;font-stretch:normal;font-size:12px;font-family:'Roboto Condensed';-inkscape-font-specification:'Roboto Condensed, Normal';font-variant-ligatures:normal;font-variant-caps:normal;font-variant-numeric:normal;font-variant-east-asian:normal;fill:#000000;fill-opacity:0.80000001"
     textLength="78.230003"
     lengthAdjust="spacingAndGlyphs"
     id="text177"
     transform="translate(-12.592265,-35.778751)">Description</text>
  <text
     x="316.67001"
     y="345.41"
     text-anchor="middle"
     style="font-style:normal;font-variant:normal;font-weight:normal;font-stretch:normal;font-size:12px;font-family:'Roboto Condensed';-inkscape-font-specification:'Roboto Condensed, Normal';font-variant-ligatures:normal;font-variant-caps:normal;font-variant-numeric:normal;font-variant-east-asian:normal;fill:#000000;fill-opacity:0.80000001"
     textLength="47.470001"
     lengthAdjust="spacingAndGlyphs"
     id="text179"
     transform="translate(-12.592265,-35.778751)">Length</text>
  <text
     x="208.46001"
     y="378.32001"
     text-anchor="middle"
     style="font-style:italic;font-variant:normal;font-weight:500;font-stretch:normal;font-size:12px;font-family:'Roboto Condensed';-inkscape-font-specification:'Roboto Condensed, Medium Italic';font-variant-ligatures:normal;font-variant-caps:normal;font-variant-numeric:normal;font-variant-east-asian:normal;fill:#000000;fill-opacity:0.8"
     textLength="42.259998"
     lengthAdjust="spacingAndGlyphs"
     id="text181"
     transform="translate(-12.592265,-44.778751)">Issues</text>
  <text
     x="100.26"
     y="338.92999"
     text-anchor="middle"
     style="font-style:italic;font-variant:normal;font-weight:500;font-stretch:normal;font-size:12px;font-family:'Roboto Condensed';-inkscape-font-specification:'Roboto Condensed, Medium Italic';font-variant-ligatures:normal;font-variant-caps:normal;font-variant-numeric:normal;font-variant-east-asian:normal;fill:#000000;fill-opacity:0.80000001"
     textLength="63.400002"
     lengthAdjust="spacingAndGlyphs"
     id="text183"
     transform="translate(-9.5922648,-41.778751)">Branches</text>
  <text
     x="42.68"
     y="239.21001"
     text-anchor="middle"
     style="font-style:italic;font-variant:normal;font-weight:500;font-stretch:normal;font-size:12px;font-family:'Roboto Condensed';-inkscape-font-specification:'Roboto Condensed, Medium Italic';font-variant-ligatures:normal;font-variant-caps:normal;font-variant-numeric:normal;font-variant-east-asian:normal;fill:#000000;fill-opacity:0.80000001"
     textLength="59.82"
     lengthAdjust="spacingAndGlyphs"
     id="text185"
     transform="translate(-12.592265,-35.778751)">Commits</text>
  <text
     x="62.68"
     y="125.81"
     text-anchor="middle"
     style="font-style:italic;font-variant:normal;font-weight:500;font-stretch:normal;font-size:12px;font-family:'Roboto Condensed';-inkscape-font-specification:'Roboto Condensed, Medium Italic';font-variant-ligatures:normal;font-variant-caps:normal;font-variant-numeric:normal;font-variant-east-asian:normal;fill:#000000;fill-opacity:0.80000001"
     textLength="35.07"
     lengthAdjust="spacingAndGlyphs"
     id="text187"
     transform="translate(-12.592265,-35.778751)">Stars</text>
  <text
     x="150.89"
     y="51.790001"
     text-anchor="middle"
     style="font-style:italic;font-variant:normal;font-weight:500;font-stretch:normal;font-size:12px;font-family:'Roboto Condensed';-inkscape-font-specification:'Roboto Condensed, Medium Italic';font-variant-ligatures:normal;font-variant-caps:normal;font-variant-numeric:normal;font-variant-east-asian:normal;fill:#000000;fill-opacity:0.80000001"
     textLength="37.27"
     lengthAdjust="spacingAndGlyphs"
     id="text189"
     transform="translate(-12.592265,-35.778751)">Forks</text>
  <circle
     cx="377.99774"
     cy="239.59125"
     r="2.49"
     style="fill:#c7a76c;stroke:#c7a76c;stroke-width:0.71"
     id="circle195" />
  <line
     x1="371.08774"
     y1="239.59125"
     x2="384.90775"
     y2="239.59125"
     style="stroke:#c7a76b;stroke-width:3.2;stroke-linecap:butt;stroke-opacity:0.9"
     id="line197" />
  <circle
     cx="377.99774"
     cy="256.87125"
     r="2.49"
     style="fill:#a4b266;stroke:#a4b266;stroke-width:0.71"
     id="circle199" />
  <line
     x1="371.08774"
     y1="256.87125"
     x2="384.90775"
     y2="256.87125"
     style="stroke:#a4b266;stroke-width:3.2;stroke-linecap:butt;stroke-opacity:0.9"
     id="line201" />
  <circle
     cx="377.99774"
     cy="274.15125"
     r="2.49"
     style="fill:#76bb80;stroke:#76bb80;stroke-width:0.71"
     id="circle203" />
  <line
     x1="371.08774"
     y1="274.15125"
     x2="384.90775"
     y2="274.15125"
     style="stroke:#76bb80;stroke-width:3.2;stroke-linecap:butt;stroke-opacity:0.9"
     id="line205" />
  <circle
     cx="377.99774"
     cy="291.43127"
     r="2.49"
     style="fill:#44bea5;stroke:#44bea5;stroke-width:0.71"
     id="circle207" />
  <line
     x1="371.08774"
     y1="291.43127"
     x2="384.90775"
     y2="291.43127"
     style="stroke:#44bea5;stroke-width:3.2;stroke-linecap:butt;stroke-opacity:0.9"
     id="line209" />
  <circle
     cx="377.99774"
     cy="308.71124"
     r="2.49"
     style="fill:#43bbc7;stroke:#43bbc7;stroke-width:0.71"
     id="circle211" />
  <line
     x1="371.08774"
     y1="308.71124"
     x2="384.90775"
     y2="308.71124"
     style="stroke:#43bbc7;stroke-width:3.2;stroke-linecap:butt;stroke-opacity:0.5"
     id="line213" />
  <circle
     cx="377.99774"
     cy="325.99124"
     r="2.49"
     style="fill:#7db0dd;stroke:#7db0dd;stroke-width:0.71"
     id="circle215" />
  <line
     x1="371.08774"
     y1="325.99124"
     x2="384.90775"
     y2="325.99124"
     style="stroke:#7db0dd;stroke-width:3.2;stroke-linecap:butt;stroke-opacity:0.9"
     id="line217" />
  <text
     x="434.70999"
     y="173.58"
     style="font-size:8.8px;font-family:'Nimbus Roman'"
     textLength="130.33"
     lengthAdjust="spacingAndGlyphs"
     id="text219"
     transform="translate(-42.592265,69.221249)">Miscellaneous: Informational</text>
  <text
     x="434.70999"
     y="190.86"
     style="font-size:8.8px;font-family:'Nimbus Roman'"
     textLength="76.099998"
     lengthAdjust="spacingAndGlyphs"
     id="text221"
     transform="translate(-42.592265,69.221249)">Original Analysis</text>
  <text
     x="434.70999"
     y="208.14"
     style="font-size:8.8px;font-family:'Nimbus Roman'"
     textLength="53.27"
     lengthAdjust="spacingAndGlyphs"
     id="text223"
     transform="translate(-42.592265,69.221249)">Educational</text>
  <text
     x="434.70999"
     y="225.42"
     style="font-size:8.8px;font-family:'Nimbus Roman'"
     textLength="35.150002"
     lengthAdjust="spacingAndGlyphs"
     id="text225"
     transform="translate(-42.592265,69.221249)">Storage</text>
  <text
     x="434.70999"
     y="242.7"
     style="font-size:8.8px;font-family:'Nimbus Roman'"
     textLength="103.82"
     lengthAdjust="spacingAndGlyphs"
     id="text227"
     transform="translate(-42.592265,69.221249)">Miscellaneous: Articles</text>
  <text
     x="434.70999"
     y="259.98001"
     style="font-size:8.8px;font-family:'Nimbus Roman'"
     textLength="102.03"
     lengthAdjust="spacingAndGlyphs"
     id="text229"
     transform="translate(-42.592265,69.221249)">Software Development</text>
  <text
     xml:space="preserve"
     style="font-style:normal;font-variant:normal;font-weight:normal;font-stretch:normal;font-size:11.0236px;line-height:1.25;font-family:Roboto;-inkscape-font-specification:'Roboto, Normal';font-variant-ligatures:normal;font-variant-caps:normal;font-variant-numeric:normal;font-variant-east-asian:normal;letter-spacing:0px;word-spacing:0px;fill:#000000;fill-opacity:0.80000001;stroke:none;stroke-width:0.688976"
     x="-68.218071"
     y="236.20012"
     id="text3015"
     transform="rotate(-70.776801)"><tspan
       sodipodi:role="line"
       id="tspan3013"
       style="font-style:normal;font-variant:normal;font-weight:normal;font-stretch:normal;font-size:11.0236px;font-family:Roboto;-inkscape-font-specification:'Roboto, Normal';font-variant-ligatures:normal;font-variant-caps:normal;font-variant-numeric:normal;font-variant-east-asian:normal;stroke-width:0.688976;fill:#000000;fill-opacity:0.80000001"
       x="-68.218071"
       y="236.20012">Standardized Variable</tspan></text>
  <rect
     style="fill:none;fill-opacity:0.351948;stroke:#525252;stroke-width:1.95;stroke-linejoin:bevel;stroke-miterlimit:10;stroke-opacity:0.89999998"
     id="rect7109"
     width="169.49292"
     height="122.11546"
     x="364.74725"
     y="212.18564" />
  <text
     xml:space="preserve"
     style="font-style:normal;font-variant:normal;font-weight:normal;font-stretch:normal;font-size:14px;line-height:1.25;font-family:'Roboto Condensed';-inkscape-font-specification:'Roboto Condensed, ';letter-spacing:0px;word-spacing:0px;fill:#000000;fill-opacity:0.89999998;stroke:none;stroke-width:0.75"
     x="370.45413"
     y="227.57106"
     id="text17046"><tspan
       sodipodi:role="line"
       id="tspan17044"
       style="font-style:normal;font-variant:normal;font-weight:normal;font-stretch:normal;font-size:14px;font-family:'Roboto Condensed';-inkscape-font-specification:'Roboto Condensed, ';stroke-width:0.75;fill:#000000;fill-opacity:0.89999998"
       x="370.45413"
       y="227.57106">Data Use Typology</tspan></text>
</svg>
